<?xml version="1.0" encoding="UTF-8" standalone="no"?>
<svg
   version="1.1"
   width="256"
   height="256"
   id="svg803"
   sodipodi:docname="logo_ign_plugin.svg"
   inkscape:version="1.2.2 (b0a8486541, 2022-12-01)"
   xmlns:inkscape="http://www.inkscape.org/namespaces/inkscape"
   xmlns:sodipodi="http://sodipodi.sourceforge.net/DTD/sodipodi-0.dtd"
   xmlns="http://www.w3.org/2000/svg"
   xmlns:svg="http://www.w3.org/2000/svg">
  <defs
     id="defs807">
    <inkscape:path-effect
       effect="fillet_chamfer"
       id="path-effect9434"
       is_visible="true"
       lpeversion="1"
       nodesatellites_param="F,0,0,1,0,5.796738,0,1 @ F,0,0,1,0,5.796738,0,1 @ F,0,0,1,0,5.796738,0,1 @ F,0,0,1,0,5.796738,0,1 @ F,0,0,1,0,5.796738,0,1 @ F,0,0,1,0,5.796738,0,1 | F,0,0,1,0,2.9151478,0,1 @ F,0,1,1,0,2.9151478,0,1 @ F,0,1,1,0,2.9151478,0,1 @ F,0,1,1,0,2.9151478,0,1 @ F,0,1,1,0,2.9151478,0,1 @ F,0,1,1,0,2.9151478,0,1"
       unit="px"
       method="auto"
       mode="F"
       radius="0"
       chamfer_steps="1"
       flexible="false"
       use_knot_distance="true"
       apply_no_radius="true"
       apply_with_radius="true"
       only_selected="false"
       hide_knots="false" />
  </defs>
  <sodipodi:namedview
     id="namedview805"
     pagecolor="#ffffff"
     bordercolor="#000000"
     borderopacity="0.25"
     inkscape:showpageshadow="false"
     inkscape:pageopacity="0.0"
     inkscape:pagecheckerboard="0"
     inkscape:deskcolor="#d1d1d1"
     showgrid="false"
     inkscape:zoom="4"
     inkscape:cx="121.75"
     inkscape:cy="128.125"
     inkscape:window-width="1920"
     inkscape:window-height="1172"
     inkscape:window-x="1920"
     inkscape:window-y="0"
     inkscape:window-maximized="1"
     inkscape:current-layer="layer2" />
  <g
     inkscape:groupmode="layer"
     id="layer2"
     inkscape:label="neo"
     style="display:inline">
    <path
       style="fill:#0cbce9;fill-opacity:1;stroke:none;stroke-width:4.912;stroke-linecap:round;stroke-dasharray:none;stroke-opacity:0.434091"
       d="m 133.85048,127.86637 31.28948,-0.30935 -1.32583,11.3137 c 0,0 -5.17072,9.50175 -5.3033,9.72272 -0.13258,0.22097 -3.40295,4.06587 -3.40295,4.06587 L 134.15984,131.4461 Z"
       id="path8853" />
    <path
       id="rect3536"
       style="fill:#0d3649;fill-opacity:1;stroke-width:10.5819;stroke-linecap:round"
       d="m 40.117186,125.50098 v 5 h 90.373054 v -5 z m 122.296874,0 v 5 h 56.32618 v -5 z" />
    <path
       id="path8669"
       style="color:#000000;fill:#5fc45b;fill-opacity:1;stroke-linecap:round;-inkscape-stroke:none"
       d="m 159.96289,139.99708 c -1.35316,3.60847 -3.29694,6.92484 -5.71679,9.83203 l 3.78906,3.08203 c 2.60752,-3.13815 4.72503,-6.69395 6.25586,-10.54492 z" />
    <path
       style="color:#000000;fill:#0d3649;fill-opacity:1;stroke-linecap:round;-inkscape-stroke:none"
       d="m 128,53.989261 c -11.58553,0 -21.61884,8.84677 -28.644532,22.25 -7.025685,13.40323 -11.269532,31.641069 -11.269532,51.761719 0,20.12065 4.243847,38.35654 11.269532,51.75977 7.025692,13.40323 17.059002,22.25 28.644532,22.25 11.58553,0 21.61885,-8.84677 28.64453,-22.25 7.02569,-13.40323 11.26953,-31.63912 11.26953,-51.75977 0,-20.12065 -4.24384,-38.358489 -11.26953,-51.761719 -7.02568,-13.40323 -17.059,-22.25 -28.64453,-22.25 z m 0,4.708984 c 9.15855,0 17.90608,7.195463 24.47461,19.726563 6.56853,12.5311 10.73242,30.122372 10.73242,49.576172 0,19.45381 -4.16389,37.04312 -10.73242,49.57422 -6.56853,12.5311 -15.31606,19.72656 -24.47461,19.72656 -9.15855,0 -17.90607,-7.19546 -24.47461,-19.72656 -6.568534,-12.5311 -10.732422,-30.12041 -10.732422,-49.57422 0,-19.4538 4.163888,-37.045072 10.732422,-49.576172 C 110.09393,65.893708 118.84145,58.698245 128,58.698245 Z"
       id="path7529" />
    <path
       id="path6941"
       style="fill:#0cbce9;fill-opacity:1;stroke:none;stroke-width:5;stroke-linecap:round;stroke-dasharray:none;stroke-opacity:1"
       d="m 128.09997,72.528324 c -30.401076,-7.03e-4 -55.146471,24.643844 -55.146846,55.044926 3.76e-4,30.40108 24.745771,55.04562 55.146846,55.04492 0.0736,-0.005 0.14716,-0.0103 0.22071,-0.0156 v -18.7793 c -0.0735,0.007 -0.14712,0.0132 -0.22071,0.0195 -20.03168,6.2e-4 -36.370999,-16.23785 -36.371455,-36.26953 -6.24e-4,-20.03245 16.339015,-36.272111 36.371455,-36.271489 0.0736,0.0017 0.14715,0.0037 0.22071,0.0059 V 72.543948 c -0.0736,-0.0054 -0.14712,-0.01056 -0.22071,-0.01562 z"
       sodipodi:nodetypes="ccccccccccc" />
    <path
       id="path6941-0"
       style="display:inline;fill:#5fc45b;fill-opacity:1;stroke:none;stroke-width:5;stroke-linecap:round;stroke-dasharray:none;stroke-opacity:1"
       d="m 128.47368,182.61817 c 30.40109,7e-4 55.24685,-24.64384 55.24723,-55.04492 -3.7e-4,-30.40108 -24.84614,-55.045627 -55.24723,-55.044926 -0.0736,0.0051 -0.14715,0.01025 -0.22071,0.0156 v 18.7793 c 0.0736,-0.0067 0.14714,-0.01322 0.22071,-0.0195 20.03169,-6.21e-4 36.47139,16.237856 36.47184,36.269536 6.2e-4,20.03244 -16.43939,36.2721 -36.47184,36.27148 l -0.22071,-0.006 v 18.76371 c 0.0736,0.005 0.14714,0.0106 0.22071,0.0156 z"
       sodipodi:nodetypes="cccccccccccc" />
    <path
       id="path2895"
       style="fill:#0d3649;fill-opacity:1;stroke-width:10.3175;stroke-linecap:round"
       d="M 123.16745,14.851561 32.426299,67.240242 a 9.664998,9.664998 0 0 0 -4.832551,8.370163 V 180.3896 a 9.664998,9.664998 0 0 0 4.832551,8.37017 l 90.741151,52.38867 a 9.665206,9.665206 0 0 0 9.6651,0 l 90.74115,-52.38867 a 9.664998,9.664998 0 0 0 4.83255,-8.37017 V 75.610405 A 9.664998,9.664998 0 0 0 223.5737,67.240242 L 132.83255,14.851561 a 9.665205,9.665205 0 0 0 -9.6651,0 z m 7.26281,15.253692 81.13362,46.842234 a 4.8604946,4.8604946 0 0 1 2.43026,4.209318 v 93.684445 a 4.86059,4.86059 0 0 1 -2.43023,4.20936 l -81.13367,46.8441 a 4.8603482,4.8603482 0 0 1 -4.86047,0 l -81.133677,-46.8441 a 4.8605898,4.8605898 0 0 1 -2.430235,-4.20936 V 81.156805 a 4.8604944,4.8604944 0 0 1 2.430259,-4.209318 L 125.56974,30.105253 a 4.8605391,4.8605391 0 0 1 4.86052,0 z" />
    <path
       id="rect3536-7"
       style="fill:#0d3649;fill-opacity:1;stroke-width:9.58217;stroke-linecap:round"
       d="M 125.50977,54.450198 V 165.4502 h 4.98047 V 54.450198 Z m 0,128.232422 v 18.86524 h 4.98047 v -18.86524 z" />
    <path
       style="fill:#5fc45b;fill-opacity:1;stroke:none;stroke-width:5;stroke-linecap:round;stroke-dasharray:none;stroke-opacity:1"
       d="m 177.2467,150.07985 c 0.4526,0.60346 17.32019,9.57982 17.32019,9.57982 l -7.80994,12.43341 -15.95218,-9.84438 z"
       id="path5715"
       sodipodi:nodetypes="ccccc" />
    <path
       id="path3888"
       style="color:#000000;fill:#0d3649;fill-opacity:1;stroke-linecap:round;-inkscape-stroke:none"
       d="m 128.00195,53.385745 c -41.178483,0 -74.615232,33.4348 -74.615232,74.613285 0,41.17849 33.436749,74.61523 74.615232,74.61523 20.58726,0 39.23846,-8.35714 52.74415,-21.86132 l -3.79493,-3.23633 c -12.57074,12.42798 -29.8554,20.09766 -48.94922,20.09765 -38.476288,0 -69.615232,-31.13894 -69.615232,-69.61523 0,-38.47629 31.138944,-69.613285 69.615232,-69.613285 38.4763,0 69.61329,31.136995 69.61329,69.613285 0,17.1031 -6.15466,32.75612 -16.36914,44.86914 l 4.5625,2.28516 c 10.50251,-12.85681 16.80664,-29.27584 16.80664,-47.1543 0,-41.178485 -33.43481,-74.613285 -74.61329,-74.613285 z" />
    <g
       id="path5266"
       style="fill:#0d3649;fill-opacity:1"
       transform="translate(-2.0136734,2.9736356)">
      <path
         style="color:#000000;fill:none;fill-opacity:1;stroke-width:5;stroke-linecap:round;-inkscape-stroke:none"
         d="m 134.11881,125.67038 c 13.56402,15.75713 27.65162,31.33371 52.65181,43.14733"
         id="path5573" />
      <path
         style="color:#000000;fill:#0d3649;fill-opacity:1;stroke-linecap:round;-inkscape-stroke:none"
         d="m 132.48828,123.77539 a 2.5,2.5 0 0 0 -0.26367,3.52539 c 13.59092,15.78838 28.03886,31.75606 53.47851,43.77734 a 2.5,2.5 0 0 0 3.32813,-1.1914 2.5,2.5 0 0 0 -1.19336,-3.33008 c -24.56067,-11.60593 -38.28712,-26.79173 -51.82422,-42.51758 a 2.5,2.5 0 0 0 -3.52539,-0.26367 z"
         id="path5575" />
    </g>
    <rect
       style="display:inline;fill:#0cbce9;fill-opacity:1;stroke-width:4.47365;stroke-linecap:round"
       id="rect3536-9"
       width="31.925289"
       height="5"
       x="130.48927"
       y="125.5" />
    <path
       id="path3888-9"
       style="color:#000000;fill:#0d3649;fill-opacity:1;stroke-linecap:round;-inkscape-stroke:none"
       d="m 128.00195,69.05762 c -32.523224,0 -58.943357,26.418171 -58.943357,58.94141 0,32.52324 26.420133,58.94336 58.943357,58.94336 19.09956,0 36.08925,-9.1143 46.86329,-23.22266 l -4.01953,-2.48437 -0.2168,-0.1582 c -9.86272,12.69981 -25.27892,20.86523 -42.62696,20.86523 -29.821032,0 -53.943357,-24.12232 -53.943357,-53.94336 0,-29.821047 24.122325,-53.94141 53.943357,-53.94141 29.82106,0 53.93946,24.120363 53.93946,53.94141 0,7.91129 -1.69699,15.42236 -4.74805,22.1875 l 4.3457,2.46875 c 3.46586,-7.50411 5.40235,-15.85593 5.40235,-24.65625 0,-32.523239 -26.41622,-58.94141 -58.93946,-58.94141 z m -0.002,19.81836 c -21.57828,0 -39.125001,17.54477 -39.125001,39.12305 0,21.57828 17.546721,39.125 39.125001,39.125 12.41309,0 23.48427,-5.81315 30.65625,-14.85351 l -3.67773,-3.16407 -0.0918,-0.084 c -6.24103,7.97647 -15.95092,13.10156 -26.88672,13.10156 -18.87608,0 -34.125001,-15.24892 -34.125001,-34.125 0,-18.87608 15.248921,-34.12305 34.125001,-34.12305 18.87608,0 34.125,15.24697 34.125,34.12305 0,4.34897 -0.81816,8.50051 -2.29492,12.32227 l 4.37695,2.48828 c 1.87612,-4.5712 2.91797,-9.57024 2.91797,-14.81055 0,-21.57828 -17.54672,-39.12305 -39.125,-39.12305 z" />
  </g>
</svg>
